<svg xmlns="http://www.w3.org/2000/svg" viewBox="0 0 48 48" width="24px" height="24px">
  <path fill="#FFC107" d="M43.6,20.1H42V20H24v8h11.3c-1.6,4.7-6,8-11.3,8c-6.6,0-12-5.4-12-12s5.4-12,12-12c3.1,0,5.8,1.2,7.8,3.1l5.7-5.7C34.2,4.1,29.3,2,24,2C12.9,2,4,10.9,4,22s8.9,20,20,20s20-8.9,20-20C44,22.7,43.9,21.4,43.6,20.1z"/>
  <path fill="#FF3D00" d="M6.3,14.7l6.4,4.7C14.7,15.1,19,12,24,12c3.1,0,5.8,1.2,7.8,3.1l5.7-5.7C34.2,4.1,29.3,2,24,2C16.3,2,9.7,6.6,6.3,14.7z"/>
  <path fill="#4CAF50" d="M24,44c5.2,0,9.9-2,13.4-5.2l-6.2-5.2c-1.7,1.2-3.9,1.9-6.2,1.9c-5.3,0-9.8-3.2-11.6-7.8l-6.5,5C9.7,41.4,16.3,46,24,46z"/>
  <path fill="#1976D2" d="M43.6,20.1H42V20H24v8h11.3c-0.8,2.2-2.2,4.1-4.1,5.4l6.2,5.2C42.1,39.6,46,34,46,28C46,26.7,45.9,25.4,43.6,20.1z"/>
</svg>